<?xml version="1.0" encoding="UTF-8"?>
<!DOCTYPE svg PUBLIC "-//W3C//DTD SVG 1.1//EN" "http://www.w3.org/Graphics/SVG/1.1/DTD/svg11.dtd">
<svg xmlns="http://www.w3.org/2000/svg" version="1.1" width="920px" height="920px" style="shape-rendering:geometricPrecision; text-rendering:geometricPrecision; image-rendering:optimizeQuality; fill-rule:evenodd; clip-rule:evenodd" xmlns:xlink="http://www.w3.org/1999/xlink">
<g><path style="opacity:1" fill="#fefefe" d="M -0.5,-0.5 C 306.167,-0.5 612.833,-0.5 919.5,-0.5C 919.5,306.167 919.5,612.833 919.5,919.5C 916.167,919.5 912.833,919.5 909.5,919.5C 908.003,918.694 906.336,918.028 904.5,917.5C 598.385,918.395 296.718,918.729 -0.5,918.5C -0.5,612.167 -0.5,305.833 -0.5,-0.5 Z"/></g>
<g><path style="opacity:1" fill="#e3fdf1" d="M 350.5,188.5 C 349.167,187.5 347.833,186.5 346.5,185.5C 343.883,181.87 341.216,178.203 338.5,174.5C 334.608,176.605 330.941,178.938 327.5,181.5C 327.5,180.5 327.5,179.5 327.5,178.5C 327.414,177.504 327.748,176.671 328.5,176C 331.916,175.14 335.083,173.973 338,172.5C 342.897,173.016 345.064,175.682 344.5,180.5C 348.398,181.59 350.398,184.256 350.5,188.5 Z"/></g>
<g><path style="opacity:1" fill="#e1fdf1" d="M 581.5,175.5 C 584.833,175.5 588.167,175.5 591.5,175.5C 592.939,177.588 593.606,179.921 593.5,182.5C 596.321,182.539 598.988,183.205 601.5,184.5C 602.853,185.524 603.52,186.857 603.5,188.5C 595.532,185.185 588.198,180.851 581.5,175.5 Z"/></g>
<g><path style="opacity:1" fill="#73d095" d="M 346.5,185.5 C 343.868,184.466 341.201,183.466 338.5,182.5C 336.455,184.475 334.788,184.475 333.5,182.5C 330.631,181.91 327.965,182.577 325.5,184.5C 326.167,183.5 326.833,182.5 327.5,181.5C 330.941,178.938 334.608,176.605 338.5,174.5C 341.216,178.203 343.883,181.87 346.5,185.5 Z"/></g>
<g><path style="opacity:1" fill="#71de9b" d="M 346.5,185.5 C 346.703,187.044 347.37,188.378 348.5,189.5C 347.833,190.167 347.167,190.833 346.5,191.5C 347.853,192.685 349.02,194.019 350,195.5C 350.333,194.833 350.667,194.167 351,193.5C 351.333,195.167 351.667,196.833 352,198.5C 355.036,202.319 357.702,206.319 360,210.5C 362.27,211.69 364.77,213.023 367.5,214.5C 372.5,220.5 377.5,226.5 382.5,232.5C 385.775,238.731 389.775,244.397 394.5,249.5C 397.147,253.807 400.147,257.807 403.5,261.5C 403.5,261.833 403.5,262.167 403.5,262.5C 409.602,271.051 415.935,279.385 422.5,287.5C 425.529,293.557 429.529,298.891 434.5,303.5C 435.399,306.395 436.733,309.062 438.5,311.5C 438.433,313.401 438.767,315.234 439.5,317C 441.973,321.032 444.806,324.865 448,328.5C 448.483,329.448 448.649,330.448 448.5,331.5C 450.824,331.662 452.491,332.828 453.5,335C 453.167,335.333 452.833,335.667 452.5,336C 456.899,342.348 461.566,348.515 466.5,354.5C 470.992,357.749 473.992,356.749 475.5,351.5C 478.533,350.143 480.533,347.809 481.5,344.5C 482.833,343.833 484.167,343.167 485.5,342.5C 486.748,337.988 489.415,334.655 493.5,332.5C 493.291,331.914 492.957,331.414 492.5,331C 495.778,328.168 497.445,324.835 497.5,321C 499.038,319.068 500.205,316.901 501,314.5C 502.975,313.236 505.475,312.236 508.5,311.5C 507.731,308.829 507.398,306.329 507.5,304C 509.969,301.559 511.802,298.726 513,295.5C 512.474,298.203 512.974,300.87 514.5,303.5C 514.307,302.312 514.807,300.978 516,299.5C 519.725,302.297 520.392,301.63 518,297.5C 517.667,297.833 517.333,298.167 517,298.5C 516.5,297.333 515.667,296.5 514.5,296C 515.927,293.317 517.927,291.15 520.5,289.5C 520.167,288.833 519.833,288.167 519.5,287.5C 520.99,286.174 522.324,284.674 523.5,283C 523.167,282.667 522.833,282.333 522.5,282C 524.873,278.307 527.206,274.641 529.5,271C 528.825,268.758 529.325,266.591 531,264.5C 531.741,263.359 532.575,263.359 533.5,264.5C 535.187,260.533 536.687,256.866 538,253.5C 539.5,251.333 541.333,249.5 543.5,248C 543.216,246.044 543.216,243.877 543.5,241.5C 545.942,241.881 546.609,241.214 545.5,239.5C 547.717,236.932 548.884,233.932 549,230.5C 549.333,230.833 549.667,231.167 550,231.5C 550.494,229.866 550.66,228.199 550.5,226.5C 551.79,225.942 552.623,224.942 553,223.5C 553.333,223.833 553.667,224.167 554,224.5C 556.531,219.278 559.697,214.445 563.5,210C 562.483,208.951 562.316,207.784 563,206.5C 566.43,201.303 569.597,195.97 572.5,190.5C 577.78,180.74 583.947,180.073 591,188.5C 591.626,186.009 592.459,186.009 593.5,188.5C 599.491,189.329 604.491,191.995 608.5,196.5C 609.736,197.246 611.07,197.579 612.5,197.5C 612.281,198.675 612.614,199.675 613.5,200.5C 616.055,201.76 618.555,203.094 621,204.5C 623.432,203.55 625.932,203.55 628.5,204.5C 632.683,206.757 637.016,208.757 641.5,210.5C 652.496,217.668 663.83,224.334 675.5,230.5C 679.5,233.167 683.5,235.833 687.5,238.5C 690.945,241.915 693.945,245.749 696.5,250C 696.156,251.365 695.489,252.532 694.5,253.5C 694.709,254.086 695.043,254.586 695.5,255C 689.934,259.319 687.601,264.819 688.5,271.5C 687.167,271.5 685.833,271.5 684.5,271.5C 684.785,273.288 684.452,274.955 683.5,276.5C 682.575,275.359 681.741,275.359 681,276.5C 680.009,280.488 677.843,283.654 674.5,286C 675.03,288.136 674.197,289.97 672,291.5C 670.99,298.398 667.657,304.398 662,309.5C 656.875,321.083 650.709,332.083 643.5,342.5C 642.536,339.917 641.202,339.417 639.5,341C 640.687,342.019 641.687,343.186 642.5,344.5C 637.326,354.52 631.493,364.187 625,373.5C 622.642,380.93 618.975,387.596 614,393.5C 613.696,395.441 612.863,397.107 611.5,398.5C 612.552,400.11 612.552,401.777 611.5,403.5C 610.405,406.507 608.905,408.507 607,409.5C 605.869,412.445 605.036,415.445 604.5,418.5C 604.5,419.167 604.167,419.5 603.5,419.5C 601.911,420.872 600.578,422.539 599.5,424.5C 598.914,424.291 598.414,423.957 598,423.5C 597.55,425.519 596.717,427.352 595.5,429C 595.957,429.414 596.291,429.914 596.5,430.5C 594.041,431.791 592.541,433.791 592,436.5C 590.915,437.293 589.748,437.96 588.5,438.5C 586.572,442.031 584.406,445.364 582,448.5C 579.288,456.218 575.288,463.218 570,469.5C 569.51,470.793 569.343,472.127 569.5,473.5C 568.5,473.5 567.5,473.5 566.5,473.5C 565.358,480.102 562.191,486.102 557,491.5C 554.999,496.843 551.999,501.509 548,505.5C 546.132,504.29 544.632,504.79 543.5,507C 547.105,510.917 546.438,514.25 541.5,517C 543.124,521.342 542.29,525.175 539,528.5C 539.617,526.905 539.284,525.572 538,524.5C 537.063,529.086 534.897,532.919 531.5,536C 531.966,537.299 531.966,538.799 531.5,540.5C 529.058,540.354 528.391,541.187 529.5,543C 527.116,545.379 525.616,548.213 525,551.5C 523.853,550.542 522.853,550.875 522,552.5C 521.64,554.608 520.973,556.608 520,558.5C 516.905,562.589 514.239,566.923 512,571.5C 510.786,573.049 509.286,574.215 507.5,575C 508.308,575.308 508.975,575.808 509.5,576.5C 508.5,577.5 507.5,578.5 506.5,579.5C 504.323,578.496 503.989,579.162 505.5,581.5C 504.383,587.069 501.716,591.736 497.5,595.5C 494.563,603.064 490.563,609.231 485.5,614C 485.384,617.206 483.884,620.039 481,622.5C 479.254,626.327 477.254,629.993 475,633.5C 473.846,632.257 472.512,631.257 471,630.5C 470.166,633.172 469.332,635.839 468.5,638.5C 470.425,640.95 469.925,643.283 467,645.5C 466.586,645.043 466.086,644.709 465.5,644.5C 464.969,647.099 464.802,649.765 465,652.5C 462.82,654.863 461.153,657.53 460,660.5C 459.517,659.552 459.351,658.552 459.5,657.5C 458.5,657.5 457.5,657.5 456.5,657.5C 456.781,659.963 457.781,662.13 459.5,664C 457.359,665.308 455.359,666.808 453.5,668.5C 453.987,669.446 454.32,670.446 454.5,671.5C 447.719,685.573 439.552,699.239 430,712.5C 428.738,717.995 426.072,722.662 422,726.5C 420.086,731.248 418.086,735.581 416,739.5C 415.854,747.01 412.021,749.844 404.5,748C 403.62,746.644 403.286,745.144 403.5,743.5C 400.234,743.567 398.734,741.901 399,738.5C 396.822,741.468 395.656,741.135 395.5,737.5C 391.727,737.737 388.06,737.237 384.5,736C 376.021,729.523 367.021,723.857 357.5,719C 358.738,719.077 359.738,718.911 360.5,718.5C 360.291,717.914 359.957,717.414 359.5,717C 354.81,716.43 350.143,714.764 345.5,712C 343.174,710.453 342.007,708.619 342,706.5C 339.563,709.149 338.23,708.483 338,704.5C 336.89,709.479 335.89,709.146 335,703.5C 334.107,704.711 333.274,704.711 332.5,703.5C 331.985,701.775 331.318,700.108 330.5,698.5C 329.105,703.54 328.105,703.206 327.5,697.5C 324.671,697.675 323.004,696.342 322.5,693.5C 321.17,695.347 321.503,696.847 323.5,698C 321.094,698.779 319.427,697.946 318.5,695.5C 317.035,696.609 316.035,696.109 315.5,694C 312.89,692.519 310.223,691.352 307.5,690.5C 307.646,688.058 306.813,687.391 305,688.5C 303.54,686.578 301.873,685.911 300,686.5C 299.383,683.965 299.883,681.632 301.5,679.5C 300.236,679.36 299.069,679.36 298,679.5C 297.65,675.467 297.483,671.633 297.5,668C 299.422,666.58 300.755,664.747 301.5,662.5C 302.192,663.025 302.692,663.692 303,664.5C 303.49,663.207 303.657,661.873 303.5,660.5C 306.685,660.278 307.685,658.778 306.5,656C 310.598,654.642 312.265,651.808 311.5,647.5C 312.822,647.67 313.989,647.337 315,646.5C 313.756,641.617 314.923,637.284 318.5,633.5C 319.274,632.289 320.107,632.289 321,633.5C 321.49,632.207 321.657,630.873 321.5,629.5C 322.5,629.5 323.5,629.5 324.5,629.5C 323.833,627.181 323.666,624.847 324,622.5C 326.753,617.992 329.753,613.659 333,609.5C 333.617,608.551 333.451,607.718 332.5,607C 335.016,604.137 337.183,600.97 339,597.5C 340.533,597.056 342.033,596.723 343.5,596.5C 342.624,595.749 341.624,595.249 340.5,595C 342.141,593.871 343.141,592.371 343.5,590.5C 345.266,585.875 347.599,581.542 350.5,577.5C 352.058,569.936 355.392,563.269 360.5,557.5C 362.449,555.297 364.616,553.964 367,553.5C 370.199,549.075 372.366,544.075 373.5,538.5C 378.644,533.398 382.311,527.398 384.5,520.5C 385.251,521.376 385.751,522.376 386,523.5C 387.163,521.715 387.83,519.715 388,517.5C 390.276,515.282 391.776,512.615 392.5,509.5C 394.294,510.556 396.294,510.556 398.5,509.5C 397.675,508.614 396.675,508.281 395.5,508.5C 395.523,506.073 396.023,503.74 397,501.5C 397.197,503.516 398.197,505.516 400,507.5C 402.316,506.478 402.816,504.978 401.5,503C 404.167,501 404.167,499 401.5,497C 401.944,495.467 402.277,493.967 402.5,492.5C 400.82,491.231 399.653,489.564 399,487.5C 398.667,489.167 398.333,490.833 398,492.5C 397.617,491.944 397.117,491.611 396.5,491.5C 396.5,489.833 396.5,488.167 396.5,486.5C 396.998,482.193 395.998,478.027 393.5,474C 393.833,473.667 394.167,473.333 394.5,473C 392.248,471.913 390.915,470.079 390.5,467.5C 388.362,466.595 386.195,465.595 384,464.5C 382.007,460.535 380.007,456.535 378,452.5C 377.667,453.167 377.333,453.833 377,454.5C 374.614,451.354 372.448,448.687 370.5,446.5C 371.5,445.833 372.5,445.167 373.5,444.5C 369.107,444.223 366.941,441.889 367,437.5C 366.667,438.167 366.333,438.833 366,439.5C 364.734,436.28 362.567,433.947 359.5,432.5C 357.453,427.624 354.453,423.457 350.5,420C 351.517,418.951 351.684,417.784 351,416.5C 346.818,410.66 342.318,405.16 337.5,400C 337.833,399.667 338.167,399.333 338.5,399C 337.643,398.311 336.977,397.478 336.5,396.5C 337.485,394.902 337.651,393.235 337,391.5C 336.667,391.833 336.333,392.167 336,392.5C 335.667,390.833 335.333,389.167 335,387.5C 334.517,388.448 334.351,389.448 334.5,390.5C 333.325,390.719 332.325,390.386 331.5,389.5C 332.833,386.833 332.167,386.167 329.5,387.5C 328.618,386.24 327.618,385.074 326.5,384C 326.833,383.667 327.167,383.333 327.5,383C 326.773,381.601 326.273,380.101 326,378.5C 322.264,381.523 320.097,380.523 319.5,375.5C 318.675,374.614 317.675,374.281 316.5,374.5C 316.414,373.504 316.748,372.671 317.5,372C 315.916,369.003 313.75,366.503 311,364.5C 310.405,363.101 310.572,361.768 311.5,360.5C 310.009,359.756 308.509,359.09 307,358.5C 303.735,352.725 300.235,347.058 296.5,341.5C 296.709,340.914 297.043,340.414 297.5,340C 295.232,339.028 293.232,337.695 291.5,336C 291.261,333.514 290.927,331.014 290.5,328.5C 288.878,326.561 287.044,326.228 285,327.5C 283,325.167 281,322.833 279,320.5C 277.81,315.787 275.81,311.453 273,307.5C 272.667,307.833 272.333,308.167 272,308.5C 271.333,305.156 269.666,302.489 267,300.5C 266.667,300.833 266.333,301.167 266,301.5C 265.316,300.216 265.483,299.049 266.5,298C 265.328,297.581 264.328,296.915 263.5,296C 264.079,294.092 264.079,292.425 263.5,291C 261.043,289.438 258.376,288.438 255.5,288C 255.833,287.667 256.167,287.333 256.5,287C 253.609,284.945 251.275,282.445 249.5,279.5C 247.991,277.344 246.991,275.01 246.5,272.5C 243.09,272.616 241.756,270.95 242.5,267.5C 241.5,267.5 240.5,267.5 239.5,267.5C 238.71,262.985 238.877,258.652 240,254.5C 255.675,242.156 271.342,229.823 287,217.5C 287.308,218.308 287.808,218.975 288.5,219.5C 290.01,217.491 291.677,215.658 293.5,214C 295.441,213.257 297.274,213.424 299,214.5C 301.546,211.963 303.212,208.963 304,205.5C 308.222,202.031 312.222,198.364 316,194.5C 316.483,193.552 316.649,192.552 316.5,191.5C 318.637,188.027 321.637,185.694 325.5,184.5C 327.965,182.577 330.631,181.91 333.5,182.5C 334.788,184.475 336.455,184.475 338.5,182.5C 341.201,183.466 343.868,184.466 346.5,185.5 Z"/></g>
<g><path style="opacity:1" fill="#72d596" d="M 346.5,185.5 C 347.833,186.5 349.167,187.5 350.5,188.5C 350.5,188.833 350.5,189.167 350.5,189.5C 354.446,196.405 359.113,202.738 364.5,208.5C 365.529,210.517 366.529,212.517 367.5,214.5C 364.77,213.023 362.27,211.69 360,210.5C 357.702,206.319 355.036,202.319 352,198.5C 351.667,196.833 351.333,195.167 351,193.5C 350.667,194.167 350.333,194.833 350,195.5C 349.02,194.019 347.853,192.685 346.5,191.5C 347.167,190.833 347.833,190.167 348.5,189.5C 347.37,188.378 346.703,187.044 346.5,185.5 Z"/></g>
<g><path style="opacity:1" fill="#dbfeef" d="M 350.5,189.5 C 353.168,191.724 356.168,193.724 359.5,195.5C 361.074,199.932 362.74,204.265 364.5,208.5C 359.113,202.738 354.446,196.405 350.5,189.5 Z"/></g>
<g><path style="opacity:1" fill="#dffcee" d="M 641.5,210.5 C 637.016,208.757 632.683,206.757 628.5,204.5C 624.833,201.833 621.167,199.167 617.5,196.5C 618.822,196.67 619.989,196.337 621,195.5C 621.284,197.886 622.284,198.552 624,197.5C 625.715,200.397 628.215,201.731 631.5,201.5C 631.5,202.5 631.5,203.5 631.5,204.5C 635.535,205.51 638.868,207.51 641.5,210.5 Z"/></g>
<g><path style="opacity:1" fill="#f3fefb" d="M 591.5,175.5 C 592.873,175.343 594.207,175.51 595.5,176C 595.043,176.414 594.709,176.914 594.5,177.5C 595.262,177.911 596.262,178.077 597.5,178C 596.273,179.587 596.606,180.921 598.5,182C 601.633,182.911 604.633,183.244 607.5,183C 607.167,183.333 606.833,183.667 606.5,184C 607.448,184.483 608.448,184.649 609.5,184.5C 609.5,186.167 609.5,187.833 609.5,189.5C 614.118,190.782 618.618,192.449 623,194.5C 623.414,194.043 623.914,193.709 624.5,193.5C 625.18,198.134 628.18,200.467 633.5,200.5C 633.5,199.5 633.5,198.5 633.5,197.5C 638.158,197.653 639.158,199.486 636.5,203C 642.172,207.801 648.338,210.968 655,212.5C 655.333,211.833 655.667,211.167 656,210.5C 656.726,213.143 657.893,215.476 659.5,217.5C 653.5,215.167 647.5,212.833 641.5,210.5C 638.868,207.51 635.535,205.51 631.5,204.5C 631.5,203.5 631.5,202.5 631.5,201.5C 628.215,201.731 625.715,200.397 624,197.5C 622.284,198.552 621.284,197.886 621,195.5C 619.989,196.337 618.822,196.67 617.5,196.5C 612.491,194.332 607.824,191.665 603.5,188.5C 603.52,186.857 602.853,185.524 601.5,184.5C 598.988,183.205 596.321,182.539 593.5,182.5C 593.606,179.921 592.939,177.588 591.5,175.5 Z"/></g>
<g><path style="opacity:1" fill="#e2fef1" d="M 641.5,210.5 C 647.5,212.833 653.5,215.167 659.5,217.5C 659.5,218.5 659.5,219.5 659.5,220.5C 664.284,221.224 668.617,223.057 672.5,226C 673.883,227.271 674.883,228.771 675.5,230.5C 663.83,224.334 652.496,217.668 641.5,210.5 Z"/></g>
<g><path style="opacity:1" fill="#e1fdf1" d="M 574.5,177.5 C 562.246,199.006 550.246,220.672 538.5,242.5C 532.005,252.51 525.672,262.677 519.5,273C 518.016,276.13 516.683,279.297 515.5,282.5C 510.77,289.235 506.437,296.235 502.5,303.5C 502.655,300.391 503.322,297.391 504.5,294.5C 506.036,291.098 508.203,288.098 511,285.5C 510.739,279.689 512.906,275.022 517.5,271.5C 518.907,268.279 519.907,264.945 520.5,261.5C 522.681,261.716 524.347,260.883 525.5,259C 525.167,258.667 524.833,258.333 524.5,258C 529.577,255.491 532.077,251.324 532,245.5C 532.333,245.833 532.667,246.167 533,246.5C 534.22,242.672 536.22,239.339 539,236.5C 540.227,232.383 541.727,228.383 543.5,224.5C 547.068,224.241 548.401,222.241 547.5,218.5C 548.5,218.5 549.5,218.5 550.5,218.5C 550.343,217.127 550.51,215.793 551,214.5C 554.855,209.305 557.855,203.638 560,197.5C 561.154,196.257 562.488,195.257 564,194.5C 564.762,189.582 566.262,184.916 568.5,180.5C 570.553,179.473 572.553,178.473 574.5,177.5 Z"/></g>
<g><path style="opacity:1" fill="#74d399" d="M 581.5,175.5 C 588.198,180.851 595.532,185.185 603.5,188.5C 607.824,191.665 612.491,194.332 617.5,196.5C 621.167,199.167 624.833,201.833 628.5,204.5C 625.932,203.55 623.432,203.55 621,204.5C 618.555,203.094 616.055,201.76 613.5,200.5C 612.614,199.675 612.281,198.675 612.5,197.5C 611.07,197.579 609.736,197.246 608.5,196.5C 604.491,191.995 599.491,189.329 593.5,188.5C 592.459,186.009 591.626,186.009 591,188.5C 583.947,180.073 577.78,180.74 572.5,190.5C 569.597,195.97 566.43,201.303 563,206.5C 562.316,207.784 562.483,208.951 563.5,210C 559.697,214.445 556.531,219.278 554,224.5C 553.667,224.167 553.333,223.833 553,223.5C 552.623,224.942 551.79,225.942 550.5,226.5C 547.435,230.332 545.102,234.666 543.5,239.5C 541.681,240.32 540.014,241.32 538.5,242.5C 550.246,220.672 562.246,199.006 574.5,177.5C 576.052,174.429 578.385,173.763 581.5,175.5 Z"/></g>
<g><path style="opacity:1" fill="#e4fef3" d="M 364.5,208.5 C 369.162,210.834 372.495,214.501 374.5,219.5C 380.437,221.69 383.104,226.024 382.5,232.5C 377.5,226.5 372.5,220.5 367.5,214.5C 366.529,212.517 365.529,210.517 364.5,208.5 Z"/></g>
<g><path style="opacity:1" fill="#e7fdf5" d="M 327.5,178.5 C 327.5,179.5 327.5,180.5 327.5,181.5C 326.833,182.5 326.167,183.5 325.5,184.5C 321.637,185.694 318.637,188.027 316.5,191.5C 293.218,208.114 270.218,225.114 247.5,242.5C 247.384,239.09 249.05,237.756 252.5,238.5C 253.063,235.626 254.063,232.96 255.5,230.5C 257.143,230.52 258.476,229.853 259.5,228.5C 261.62,229.872 262.62,229.205 262.5,226.5C 263.552,226.649 264.552,226.483 265.5,226C 269.236,222.132 272.903,218.966 276.5,216.5C 278.62,217.872 279.62,217.205 279.5,214.5C 283.939,212.676 286.772,209.342 288,204.5C 288.414,204.957 288.914,205.291 289.5,205.5C 291.535,204.959 293.535,204.292 295.5,203.5C 298.769,198.234 303.436,194.901 309.5,193.5C 309.351,192.448 309.517,191.448 310,190.5C 314.92,188.362 318.253,184.696 320,179.5C 320.561,180.022 321.228,180.355 322,180.5C 323.098,179.616 323.598,178.616 323.5,177.5C 324.736,178.246 326.07,178.579 327.5,178.5 Z"/></g>
<g><path style="opacity:1" fill="#e1fdee" d="M 675.5,230.5 C 677.6,230.477 679.433,231.144 681,232.5C 682.162,231.813 683.328,231.647 684.5,232C 686.754,234.419 689.421,236.252 692.5,237.5C 693.386,238.325 693.719,239.325 693.5,240.5C 691.5,239.833 689.5,239.167 687.5,238.5C 683.5,235.833 679.5,233.167 675.5,230.5 Z"/></g>
<g><path style="opacity:1" fill="#dcfded" d="M 382.5,232.5 C 385.69,232.687 387.69,234.354 388.5,237.5C 391.112,241.103 393.112,245.103 394.5,249.5C 389.775,244.397 385.775,238.731 382.5,232.5 Z"/></g>
<g><path style="opacity:1" fill="#dffdef" d="M 693.5,240.5 C 695.492,240.328 697.158,240.995 698.5,242.5C 700.163,241.125 701.497,241.458 702.5,243.5C 703.647,245.765 703.814,248.098 703,250.5C 702.764,252.119 701.931,253.119 700.5,253.5C 701.635,251.255 702.135,248.922 702,246.5C 699.842,244.506 697.342,243.172 694.5,242.5C 694.167,241.833 693.833,241.167 693.5,240.5 Z"/></g>
<g><path style="opacity:1" fill="#7dcd9e" d="M 694.5,242.5 C 697.342,243.172 699.842,244.506 702,246.5C 702.135,248.922 701.635,251.255 700.5,253.5C 699.857,255.076 698.857,256.41 697.5,257.5C 698.1,254.668 698.767,251.835 699.5,249C 697.948,246.616 696.282,244.449 694.5,242.5 Z"/></g>
<g><path style="opacity:1" fill="#6fde9a" d="M 335.5,251.5 C 337.019,254.021 338.686,256.521 340.5,259C 342.764,259.236 344.931,259.736 347,260.5C 347.186,262.9 347.686,265.234 348.5,267.5C 353.636,271.754 357.302,277.088 359.5,283.5C 358.809,286.353 357.476,288.853 355.5,291C 350.773,292.465 346.107,294.131 341.5,296C 338.419,297.251 335.752,299.084 333.5,301.5C 329.509,299.79 325.342,298.457 321,297.5C 317.501,295.336 314.001,293.169 310.5,291C 309.464,285.955 306.797,281.955 302.5,279C 305.227,276.759 305.894,274.093 304.5,271C 306.667,269.5 308.5,267.667 310,265.5C 310.825,267.701 310.325,269.534 308.5,271C 309.448,271.483 310.448,271.649 311.5,271.5C 311.338,269.473 311.505,267.473 312,265.5C 313.983,264.234 314.983,262.568 315,260.5C 314,261.5 313,262.5 312,263.5C 312.546,260.907 314.046,258.74 316.5,257C 316.167,256.667 315.833,256.333 315.5,256C 322.594,255.671 329.261,254.171 335.5,251.5 Z"/></g>
<g><path style="opacity:1" fill="#6fde9a" d="M 591.5,251.5 C 602.167,251.5 612.833,251.5 623.5,251.5C 623.5,252.5 623.5,253.5 623.5,254.5C 618.167,254.833 618.167,255.167 623.5,255.5C 625.529,260.578 626.529,265.911 626.5,271.5C 625.5,271.5 624.5,271.5 623.5,271.5C 623.1,277.01 621.933,282.01 620,286.5C 618.644,287.38 617.144,287.714 615.5,287.5C 615.665,290.85 615.498,294.183 615,297.5C 610.1,301.677 605.1,305.677 600,309.5C 599.505,311.473 599.338,313.473 599.5,315.5C 597.61,315.297 596.11,315.963 595,317.5C 593.187,316.391 592.354,317.058 592.5,319.5C 590.473,319.338 588.473,319.505 586.5,320C 587.76,321.814 587.76,323.647 586.5,325.5C 585.059,326.865 583.726,328.365 582.5,330C 580.385,330.557 578.385,331.391 576.5,332.5C 574.509,331.573 572.509,331.406 570.5,332C 569.54,330.581 568.707,329.081 568,327.5C 567.333,310.167 567.333,292.833 568,275.5C 569.147,274.542 570.147,274.875 571,276.5C 572.101,274.606 573.434,273.939 575,274.5C 575.456,273.256 574.956,272.423 573.5,272C 575.367,271.289 576.867,271.789 578,273.5C 579.316,270.312 579.816,266.978 579.5,263.5C 580.822,263.67 581.989,263.337 583,262.5C 583.186,260.1 583.686,257.766 584.5,255.5C 586.727,254.947 589.061,254.947 591.5,255.5C 591.5,254.167 591.5,252.833 591.5,251.5 Z"/></g>
<g><path style="opacity:1" fill="#f7fefc" d="M 239.5,245.5 C 233.597,248.403 229.931,253.07 228.5,259.5C 230.244,263.746 231.744,268.079 233,272.5C 235.719,275.049 238.219,277.716 240.5,280.5C 242.033,282.289 243.033,284.289 243.5,286.5C 245.942,286.119 246.609,286.786 245.5,288.5C 248.147,291.93 251.48,294.263 255.5,295.5C 255.5,295.833 255.5,296.167 255.5,296.5C 255.5,298.833 255.5,301.167 255.5,303.5C 254.751,302.469 254.085,301.302 253.5,300C 251.102,299.626 248.769,299.626 246.5,300C 241.805,296.019 238.138,291.685 235.5,287C 236.167,286.667 236.833,286.333 237.5,286C 236.335,284.916 235.002,284.083 233.5,283.5C 230.33,280.563 227.996,277.396 226.5,274C 223.456,273.641 223.122,272.974 225.5,272C 221.132,266.197 220.632,260.031 224,253.5C 225.507,254.535 227.007,254.368 228.5,253C 230.35,250.982 232.35,249.149 234.5,247.5C 229.872,242.088 231.205,239.421 238.5,239.5C 238.579,240.93 238.246,242.264 237.5,243.5C 238.243,244.182 238.909,244.849 239.5,245.5 Z"/></g>
<g><path style="opacity:1" fill="#74d598" d="M 687.5,238.5 C 689.5,239.167 691.5,239.833 693.5,240.5C 693.833,241.167 694.167,241.833 694.5,242.5C 696.282,244.449 697.948,246.616 699.5,249C 698.767,251.835 698.1,254.668 697.5,257.5C 695.254,262.727 692.254,267.394 688.5,271.5C 687.601,264.819 689.934,259.319 695.5,255C 695.043,254.586 694.709,254.086 694.5,253.5C 695.489,252.532 696.156,251.365 696.5,250C 693.945,245.749 690.945,241.915 687.5,238.5 Z"/></g>
<g><path style="opacity:1" fill="#dffef0" d="M 394.5,249.5 C 396.823,251.804 399.489,253.804 402.5,255.5C 403.466,257.396 403.799,259.396 403.5,261.5C 400.147,257.807 397.147,253.807 394.5,249.5 Z"/></g>
<g><path style="opacity:1" fill="#f1fefb" d="M 388.5,237.5 C 389.801,238.962 391.301,240.296 393,241.5C 394.416,240.427 395.75,240.427 397,241.5C 397.895,243.804 398.729,246.138 399.5,248.5C 401.059,249.074 402.559,249.74 404,250.5C 405.113,253.274 405.613,255.941 405.5,258.5C 407.001,259.752 408.668,260.752 410.5,261.5C 411.85,260.05 413.516,259.383 415.5,259.5C 415.683,261.936 415.016,264.103 413.5,266C 415.799,271.646 419.632,276.146 425,279.5C 427.572,283.668 429.739,287.668 431.5,291.5C 433.977,293.143 436.31,294.976 438.5,297C 437.167,297.333 435.833,297.667 434.5,298C 436.116,298.615 437.449,299.615 438.5,301C 442.793,299.744 443.46,300.911 440.5,304.5C 441.025,305.192 441.692,305.692 442.5,306C 440.811,309.685 441.978,312.185 446,313.5C 446.93,315.936 448.097,318.269 449.5,320.5C 452.214,323.871 454.88,327.205 457.5,330.5C 454.27,330.439 452.437,328.772 452,325.5C 450.871,323.859 449.371,322.859 447.5,322.5C 447.5,322.167 447.5,321.833 447.5,321.5C 446.872,318.91 445.705,316.577 444,314.5C 441.278,310.311 438.112,306.644 434.5,303.5C 433.394,300.946 432.561,298.279 432,295.5C 428.383,293.213 425.216,290.547 422.5,287.5C 420.662,284.13 419.662,280.463 419.5,276.5C 417.799,276.034 416.299,276.034 415,276.5C 414.508,275.451 414.674,274.451 415.5,273.5C 412.868,270.366 410.868,266.866 409.5,263C 407.527,262.505 405.527,262.338 403.5,262.5C 403.5,262.167 403.5,261.833 403.5,261.5C 403.799,259.396 403.466,257.396 402.5,255.5C 399.489,253.804 396.823,251.804 394.5,249.5C 393.112,245.103 391.112,241.103 388.5,237.5 Z"/></g>
<g><path style="opacity:1" fill="#77ca97" d="M 236.5,252.5 C 235.859,253.482 235.193,254.482 234.5,255.5C 235.073,257.16 235.073,258.994 234.5,261C 234.954,265.196 236.287,269.029 238.5,272.5C 234.956,268.438 231.956,263.938 229.5,259C 231.059,255.939 233.392,253.773 236.5,252.5 Z"/></g>
<g><path style="opacity:1" fill="#e2fdf4" d="M 247.5,242.5 C 243.833,245.833 240.167,249.167 236.5,252.5C 233.392,253.773 231.059,255.939 229.5,259C 231.956,263.938 234.956,268.438 238.5,272.5C 243.435,280.701 249.101,288.368 255.5,295.5C 251.48,294.263 248.147,291.93 245.5,288.5C 246.609,286.786 245.942,286.119 243.5,286.5C 243.033,284.289 242.033,282.289 240.5,280.5C 238.219,277.716 235.719,275.049 233,272.5C 231.744,268.079 230.244,263.746 228.5,259.5C 229.931,253.07 233.597,248.403 239.5,245.5C 241.922,243.96 244.589,242.96 247.5,242.5 Z"/></g>
<g><path style="opacity:1" fill="#d8fdec" d="M 700.5,253.5 C 699.262,257.392 698.095,261.392 697,265.5C 694.735,266.916 693.569,268.916 693.5,271.5C 691.426,274.104 689.259,276.771 687,279.5C 685.777,282.947 684.277,286.28 682.5,289.5C 681.476,290.853 680.143,291.52 678.5,291.5C 682.238,285.078 685.571,278.412 688.5,271.5C 692.254,267.394 695.254,262.727 697.5,257.5C 698.857,256.41 699.857,255.076 700.5,253.5 Z"/></g>
<g><path style="opacity:1" fill="#e3fef3" d="M 403.5,262.5 C 405.527,262.338 407.527,262.505 409.5,263C 410.868,266.866 412.868,270.366 415.5,273.5C 414.674,274.451 414.508,275.451 415,276.5C 416.299,276.034 417.799,276.034 419.5,276.5C 419.662,280.463 420.662,284.13 422.5,287.5C 415.935,279.385 409.602,271.051 403.5,262.5 Z"/></g>
<g><path style="opacity:1" fill="#77d69a" d="M 550.5,226.5 C 550.66,228.199 550.494,229.866 550,231.5C 549.667,231.167 549.333,230.833 549,230.5C 548.884,233.932 547.717,236.932 545.5,239.5C 546.609,241.214 545.942,241.881 543.5,241.5C 543.216,243.877 543.216,246.044 543.5,248C 541.333,249.5 539.5,251.333 538,253.5C 536.687,256.866 535.187,260.533 533.5,264.5C 532.575,263.359 531.741,263.359 531,264.5C 529.325,266.591 528.825,268.758 529.5,271C 527.206,274.641 524.873,278.307 522.5,282C 522.833,282.333 523.167,282.667 523.5,283C 522.324,284.674 520.99,286.174 519.5,287.5C 519.833,288.167 520.167,288.833 520.5,289.5C 517.927,291.15 515.927,293.317 514.5,296C 515.667,296.5 516.5,297.333 517,298.5C 517.333,298.167 517.667,297.833 518,297.5C 520.392,301.63 519.725,302.297 516,299.5C 514.807,300.978 514.307,302.312 514.5,303.5C 512.974,300.87 512.474,298.203 513,295.5C 511.802,298.726 509.969,301.559 507.5,304C 507.398,306.329 507.731,308.829 508.5,311.5C 505.475,312.236 502.975,313.236 501,314.5C 500.205,316.901 499.038,319.068 497.5,321C 497.445,324.835 495.778,328.168 492.5,331C 492.957,331.414 493.291,331.914 493.5,332.5C 489.415,334.655 486.748,337.988 485.5,342.5C 484.167,343.167 482.833,343.833 481.5,344.5C 480.533,347.809 478.533,350.143 475.5,351.5C 477.091,348.648 478.424,345.648 479.5,342.5C 486.435,331.624 493.101,320.624 499.5,309.5C 504.166,305.513 507.333,300.513 509,294.5C 510.333,292.5 512,290.833 514,289.5C 514.44,287.134 514.94,284.801 515.5,282.5C 516.683,279.297 518.016,276.13 519.5,273C 525.672,262.677 532.005,252.51 538.5,242.5C 540.014,241.32 541.681,240.32 543.5,239.5C 545.102,234.666 547.435,230.332 550.5,226.5 Z"/></g>
<g><path style="opacity:1" fill="#f3fefb" d="M 693.5,271.5 C 693.08,273.094 692.414,274.594 691.5,276C 692.289,277.626 693.289,279.126 694.5,280.5C 693.001,282.802 691.668,282.469 690.5,279.5C 686.418,284.414 683.418,289.914 681.5,296C 682.996,296.507 684.163,296.007 685,294.5C 684.852,295.825 685.018,296.992 685.5,298C 684.022,300.057 682.022,301.39 679.5,302C 677.106,303.952 675.606,306.452 675,309.5C 673.226,310.965 671.392,312.298 669.5,313.5C 668.761,313.631 668.094,313.464 667.5,313C 669.204,310.763 670.204,308.263 670.5,305.5C 672.074,305.063 673.241,304.063 674,302.5C 676.099,298.983 677.599,295.316 678.5,291.5C 680.143,291.52 681.476,290.853 682.5,289.5C 684.277,286.28 685.777,282.947 687,279.5C 689.259,276.771 691.426,274.104 693.5,271.5 Z"/></g>
<g><path style="opacity:1" fill="#7ed09f" d="M 515.5,282.5 C 514.94,284.801 514.44,287.134 514,289.5C 512,290.833 510.333,292.5 509,294.5C 507.333,300.513 504.166,305.513 499.5,309.5C 500.471,307.517 501.471,305.517 502.5,303.5C 506.437,296.235 510.77,289.235 515.5,282.5 Z"/></g>
<g><path style="opacity:1" fill="#dbfeef" d="M 422.5,287.5 C 425.216,290.547 428.383,293.213 432,295.5C 432.561,298.279 433.394,300.946 434.5,303.5C 429.529,298.891 425.529,293.557 422.5,287.5 Z"/></g>
<g><path style="opacity:1" fill="#cbfbe5" d="M 678.5,291.5 C 677.599,295.316 676.099,298.983 674,302.5C 673.241,304.063 672.074,305.063 670.5,305.5C 672.664,300.5 675.331,295.833 678.5,291.5 Z"/></g>
<g><path style="opacity:1" fill="#6fde9a" d="M 357.5,305.5 C 360.313,305.548 362.979,306.215 365.5,307.5C 367.214,306.391 367.881,307.058 367.5,309.5C 370.073,310.219 372.573,311.219 375,312.5C 375.749,314.68 376.249,317.013 376.5,319.5C 379.793,323.139 383.46,326.306 387.5,329C 387.043,329.414 386.709,329.914 386.5,330.5C 388.737,331.132 390.403,332.465 391.5,334.5C 394.086,335.48 396.753,335.813 399.5,335.5C 399.354,337.942 400.187,338.609 402,337.5C 403,338.167 404,338.833 405,339.5C 405.333,342.5 405.667,345.5 406,348.5C 406.833,349.5 407.667,350.5 408.5,351.5C 409.495,356.792 409.828,362.125 409.5,367.5C 408.5,367.5 407.5,367.5 406.5,367.5C 407.511,371.856 409.344,375.856 412,379.5C 413.213,382.768 413.546,386.101 413,389.5C 410.376,390.611 408.876,392.611 408.5,395.5C 408.06,394.302 407.727,393.135 407.5,392C 405.22,391.767 403.22,390.934 401.5,389.5C 398.69,389.204 396.356,387.538 394.5,384.5C 395.376,383.749 396.376,383.249 397.5,383C 396.663,381.989 396.33,380.822 396.5,379.5C 390.363,376.083 384.53,372.75 379,369.5C 378.689,368.258 379.189,367.258 380.5,366.5C 379.63,364.474 378.13,363.141 376,362.5C 375.274,357.438 372.608,353.772 368,351.5C 367.517,350.552 367.351,349.552 367.5,348.5C 364.833,348.167 362.167,347.833 359.5,347.5C 359.67,346.178 359.337,345.011 358.5,344C 350.167,343.667 341.833,343.333 333.5,343C 332.833,340.667 332.167,338.333 331.5,336C 335.152,335.501 338.818,335.335 342.5,335.5C 342.565,333.304 343.232,331.304 344.5,329.5C 345.425,330.641 346.259,330.641 347,329.5C 347.498,326.183 347.665,322.85 347.5,319.5C 343.7,319.181 343.534,318.181 347,316.5C 347.176,313.118 347.676,309.785 348.5,306.5C 350.81,308.416 351.143,310.749 349.5,313.5C 349.556,314.737 350.056,315.737 351,316.5C 353.499,313.984 354.332,311.151 353.5,308C 354.858,307.066 356.192,306.232 357.5,305.5 Z"/></g>
<g><path style="opacity:1" fill="#e4fdf5" d="M 255.5,296.5 C 262.215,305.218 268.548,314.218 274.5,323.5C 270.149,321.061 267.315,317.394 266,312.5C 264.951,313.517 263.784,313.684 262.5,313C 260.667,310.5 258.5,308.333 256,306.5C 255.517,305.552 255.351,304.552 255.5,303.5C 255.5,301.167 255.5,298.833 255.5,296.5 Z"/></g>
<g><path style="opacity:1" fill="#d5fde7" d="M 434.5,303.5 C 438.112,306.644 441.278,310.311 444,314.5C 445.705,316.577 446.872,318.91 447.5,321.5C 444.5,318.167 441.5,314.833 438.5,311.5C 436.733,309.062 435.399,306.395 434.5,303.5 Z"/></g>
<g><path style="opacity:1" fill="#76d69a" d="M 316.5,191.5 C 316.649,192.552 316.483,193.552 316,194.5C 312.222,198.364 308.222,202.031 304,205.5C 303.212,208.963 301.546,211.963 299,214.5C 297.274,213.424 295.441,213.257 293.5,214C 291.677,215.658 290.01,217.491 288.5,219.5C 287.808,218.975 287.308,218.308 287,217.5C 271.342,229.823 255.675,242.156 240,254.5C 238.877,258.652 238.71,262.985 239.5,267.5C 240.5,267.5 241.5,267.5 242.5,267.5C 241.756,270.95 243.09,272.616 246.5,272.5C 246.991,275.01 247.991,277.344 249.5,279.5C 251.275,282.445 253.609,284.945 256.5,287C 256.167,287.333 255.833,287.667 255.5,288C 258.376,288.438 261.043,289.438 263.5,291C 264.079,292.425 264.079,294.092 263.5,296C 264.328,296.915 265.328,297.581 266.5,298C 265.483,299.049 265.316,300.216 266,301.5C 266.333,301.167 266.667,300.833 267,300.5C 269.666,302.489 271.333,305.156 272,308.5C 272.333,308.167 272.667,307.833 273,307.5C 275.81,311.453 277.81,315.787 279,320.5C 281,322.833 283,325.167 285,327.5C 287.044,326.228 288.878,326.561 290.5,328.5C 290.927,331.014 291.261,333.514 291.5,336C 293.232,337.695 295.232,339.028 297.5,340C 297.043,340.414 296.709,340.914 296.5,341.5C 300.235,347.058 303.735,352.725 307,358.5C 308.509,359.09 310.009,359.756 311.5,360.5C 310.572,361.768 310.405,363.101 311,364.5C 313.75,366.503 315.916,369.003 317.5,372C 316.748,372.671 316.414,373.504 316.5,374.5C 314.299,370.46 311.133,367.127 307,364.5C 305.314,357.79 301.647,352.457 296,348.5C 295.517,347.552 295.351,346.552 295.5,345.5C 292.447,344.287 290.113,342.12 288.5,339C 288.957,338.586 289.291,338.086 289.5,337.5C 288.273,336.41 287.44,335.076 287,333.5C 286.583,334.756 285.75,335.423 284.5,335.5C 282.167,332.833 279.833,330.167 277.5,327.5C 277.262,325.596 276.262,324.262 274.5,323.5C 268.548,314.218 262.215,305.218 255.5,296.5C 255.5,296.167 255.5,295.833 255.5,295.5C 249.101,288.368 243.435,280.701 238.5,272.5C 236.287,269.029 234.954,265.196 234.5,261C 235.073,258.994 235.073,257.16 234.5,255.5C 235.193,254.482 235.859,253.482 236.5,252.5C 240.167,249.167 243.833,245.833 247.5,242.5C 270.218,225.114 293.218,208.114 316.5,191.5 Z"/></g>
<g><path style="opacity:1" fill="#e0fef0" d="M 670.5,305.5 C 670.204,308.263 669.204,310.763 667.5,313C 668.094,313.464 668.761,313.631 669.5,313.5C 667.656,315.514 666.989,317.681 667.5,320C 666.552,320.483 665.552,320.649 664.5,320.5C 664.5,321.833 664.5,323.167 664.5,324.5C 660.485,326.853 657.152,329.853 654.5,333.5C 659.317,323.865 664.65,314.532 670.5,305.5 Z"/></g>
<g><path style="opacity:1" fill="#edfef8" d="M 502.5,303.5 C 501.471,305.517 500.471,307.517 499.5,309.5C 493.101,320.624 486.435,331.624 479.5,342.5C 476.916,343.048 475.916,344.715 476.5,347.5C 473.193,348.051 469.86,348.384 466.5,348.5C 466.167,347.833 465.833,347.167 465.5,346.5C 464.698,342.251 463.365,338.251 461.5,334.5C 463.67,336.692 465.004,339.358 465.5,342.5C 467.6,342.477 469.433,343.144 471,344.5C 471.945,344.095 472.612,343.428 473,342.5C 473.691,344.891 474.691,344.891 476,342.5C 476.579,338.909 478.412,336.076 481.5,334C 478.85,330.793 479.016,330.293 482,332.5C 482.617,331.551 482.451,330.718 481.5,330C 484.777,325.962 487.943,321.795 491,317.5C 492.275,315.283 493.275,312.949 494,310.5C 496.148,309.195 497.648,307.362 498.5,305C 499.745,304.209 501.078,303.709 502.5,303.5 Z"/></g>
<g><path style="opacity:1" fill="#73d596" d="M 438.5,311.5 C 441.5,314.833 444.5,318.167 447.5,321.5C 447.5,321.833 447.5,322.167 447.5,322.5C 453.512,330.538 459.512,338.538 465.5,346.5C 465.833,347.167 466.167,347.833 466.5,348.5C 467.737,351.245 469.57,353.578 472,355.5C 472.66,353.676 473.827,352.343 475.5,351.5C 473.992,356.749 470.992,357.749 466.5,354.5C 461.566,348.515 456.899,342.348 452.5,336C 452.833,335.667 453.167,335.333 453.5,335C 452.491,332.828 450.824,331.662 448.5,331.5C 448.649,330.448 448.483,329.448 448,328.5C 444.806,324.865 441.973,321.032 439.5,317C 438.767,315.234 438.433,313.401 438.5,311.5 Z"/></g>
<g><path style="opacity:1" fill="#ddfeed" d="M 447.5,322.5 C 449.371,322.859 450.871,323.859 452,325.5C 452.437,328.772 454.27,330.439 457.5,330.5C 457.833,332.833 459.167,334.167 461.5,334.5C 463.365,338.251 464.698,342.251 465.5,346.5C 459.512,338.538 453.512,330.538 447.5,322.5 Z"/></g>
<g><path style="opacity:1" fill="#edfef8" d="M 664.5,324.5 C 658.473,331.893 653.473,339.893 649.5,348.5C 650.558,343.327 652.224,338.327 654.5,333.5C 657.152,329.853 660.485,326.853 664.5,324.5 Z"/></g>
<g><path style="opacity:1" fill="#dffdf0" d="M 277.5,327.5 C 279.833,330.167 282.167,332.833 284.5,335.5C 287.255,338.917 289.588,342.583 291.5,346.5C 289.571,345.994 287.905,344.994 286.5,343.5C 285.842,338.345 283.009,335.345 278,334.5C 277.503,332.19 277.337,329.857 277.5,327.5 Z"/></g>
<g><path style="opacity:1" fill="#d7fdef" d="M 479.5,342.5 C 478.424,345.648 477.091,348.648 475.5,351.5C 473.827,352.343 472.66,353.676 472,355.5C 469.57,353.578 467.737,351.245 466.5,348.5C 469.86,348.384 473.193,348.051 476.5,347.5C 475.916,344.715 476.916,343.048 479.5,342.5 Z"/></g>
<g><path style="opacity:1" fill="#ddfef0" d="M 654.5,333.5 C 652.224,338.327 650.558,343.327 649.5,348.5C 647.283,351.6 645.116,354.933 643,358.5C 641.989,359.337 640.822,359.67 639.5,359.5C 643.844,351.638 648.011,343.638 652,335.5C 652.708,334.619 653.542,333.953 654.5,333.5 Z"/></g>
<g><path style="opacity:1" fill="#73d398" d="M 688.5,271.5 C 685.571,278.412 682.238,285.078 678.5,291.5C 675.331,295.833 672.664,300.5 670.5,305.5C 664.65,314.532 659.317,323.865 654.5,333.5C 653.542,333.953 652.708,334.619 652,335.5C 648.011,343.638 643.844,351.638 639.5,359.5C 633.145,368.206 627.811,377.539 623.5,387.5C 620.377,390.976 618.043,394.976 616.5,399.5C 612.5,405.833 608.5,412.167 604.5,418.5C 605.036,415.445 605.869,412.445 607,409.5C 608.905,408.507 610.405,406.507 611.5,403.5C 612.552,401.777 612.552,400.11 611.5,398.5C 612.863,397.107 613.696,395.441 614,393.5C 618.975,387.596 622.642,380.93 625,373.5C 631.493,364.187 637.326,354.52 642.5,344.5C 641.687,343.186 640.687,342.019 639.5,341C 641.202,339.417 642.536,339.917 643.5,342.5C 650.709,332.083 656.875,321.083 662,309.5C 667.657,304.398 670.99,298.398 672,291.5C 674.197,289.97 675.03,288.136 674.5,286C 677.843,283.654 680.009,280.488 681,276.5C 681.741,275.359 682.575,275.359 683.5,276.5C 684.452,274.955 684.785,273.288 684.5,271.5C 685.833,271.5 687.167,271.5 688.5,271.5 Z"/></g>
<g><path style="opacity:1" fill="#76ce97" d="M 316.5,374.5 C 319.204,378.707 321.704,383.04 324,387.5C 324.333,386.833 324.667,386.167 325,385.5C 326.937,389.435 329.604,392.768 333,395.5C 333.414,395.043 333.914,394.709 334.5,394.5C 335.777,397.034 335.777,399.534 334.5,402C 335.624,402.249 336.624,402.749 337.5,403.5C 339.963,408.04 342.296,412.707 344.5,417.5C 341.261,414.017 338.261,410.35 335.5,406.5C 321.319,386.136 306.653,366.136 291.5,346.5C 289.588,342.583 287.255,338.917 284.5,335.5C 285.75,335.423 286.583,334.756 287,333.5C 287.44,335.076 288.273,336.41 289.5,337.5C 289.291,338.086 288.957,338.586 288.5,339C 290.113,342.12 292.447,344.287 295.5,345.5C 295.351,346.552 295.517,347.552 296,348.5C 301.647,352.457 305.314,357.79 307,364.5C 311.133,367.127 314.299,370.46 316.5,374.5 Z"/></g>
<g><path style="opacity:1" fill="#dffdf0" d="M 639.5,359.5 C 639.477,361.927 638.977,364.26 638,366.5C 634.617,372.173 631.784,378.173 629.5,384.5C 627.289,385.123 625.289,386.123 623.5,387.5C 627.811,377.539 633.145,368.206 639.5,359.5 Z"/></g>
<g><path style="opacity:1" fill="#eafef7" d="M 291.5,346.5 C 306.653,366.136 321.319,386.136 335.5,406.5C 334.448,406.649 333.448,406.483 332.5,406C 330.631,403.387 328.297,401.221 325.5,399.5C 324.522,399.977 323.689,400.643 323,401.5C 322,398.833 321,398.833 320,401.5C 318.423,399.924 317.256,398.091 316.5,396C 317.795,395.298 319.128,394.631 320.5,394C 317.493,389.472 315.16,384.638 313.5,379.5C 305.588,374.975 301.254,368.309 300.5,359.5C 298.304,359.435 296.304,358.768 294.5,357.5C 293.625,353.789 292.625,350.122 291.5,346.5 Z"/></g>
<g><path style="opacity:1" fill="#f4fefb" d="M 629.5,384.5 C 629.5,385.5 629.5,386.5 629.5,387.5C 628.325,387.281 627.325,387.614 626.5,388.5C 626.025,391.722 625.025,394.722 623.5,397.5C 624.55,399.102 623.883,399.935 621.5,400C 617.298,403.726 616.631,407.893 619.5,412.5C 618.178,412.67 617.011,412.337 616,411.5C 614.35,412.891 613.85,414.391 614.5,416C 613.5,416.333 612.5,416.667 611.5,417C 611.619,418.281 611.119,419.448 610,420.5C 609.617,419.944 609.117,419.611 608.5,419.5C 610.683,416.136 612.016,412.47 612.5,408.5C 613.5,408.5 614.5,408.5 615.5,408.5C 615.704,405.482 616.037,402.482 616.5,399.5C 621.706,397.271 624.04,393.271 623.5,387.5C 625.289,386.123 627.289,385.123 629.5,384.5 Z"/></g>
<g><path style="opacity:1" fill="#ddfef0" d="M 623.5,387.5 C 624.04,393.271 621.706,397.271 616.5,399.5C 618.043,394.976 620.377,390.976 623.5,387.5 Z"/></g>
<g><path style="opacity:1" fill="#6fde9a" d="M 428.5,403.5 C 431.85,403.335 435.183,403.502 438.5,404C 440.869,407.226 443.869,409.392 447.5,410.5C 447.5,412.167 447.5,413.833 447.5,415.5C 453.551,415.066 459.551,415.066 465.5,415.5C 472.834,413.268 480.167,411.102 487.5,409C 485.009,408.374 485.009,407.541 487.5,406.5C 503.46,400.963 509.293,406.296 505,422.5C 504,423.167 503,423.833 502,424.5C 501.667,429.167 501.333,433.833 501,438.5C 498.706,442.301 496.706,446.301 495,450.5C 489.868,453.477 488.202,457.81 490,463.5C 489.667,462.833 489.333,462.167 489,461.5C 486.826,465.975 484.326,470.141 481.5,474C 481.833,474.333 482.167,474.667 482.5,475C 479.876,477.153 478.876,479.987 479.5,483.5C 476.118,484.763 472.618,485.763 469,486.5C 467.736,484.393 465.903,483.393 463.5,483.5C 462.405,480.197 460.572,477.197 458,474.5C 455.67,472.355 453.337,471.022 451,470.5C 450.172,465.492 452.339,463.158 457.5,463.5C 459.825,460.475 461.825,457.142 463.5,453.5C 460.927,449.588 459.427,445.254 459,440.5C 458.075,439.953 457.242,439.287 456.5,438.5C 456.017,435.213 454.85,432.213 453,429.5C 449.818,426.649 446.651,423.816 443.5,421C 441.887,420.911 440.72,421.745 440,423.5C 438.887,422.289 437.72,422.289 436.5,423.5C 434.88,420.942 433.38,420.942 432,423.5C 431.667,422.5 431.333,421.5 431,420.5C 430.667,420.833 430.333,421.167 430,421.5C 429.028,419.695 427.861,418.028 426.5,416.5C 426.709,415.914 427.043,415.414 427.5,415C 426.284,413.26 424.618,412.26 422.5,412C 423.249,410.266 423.749,408.433 424,406.5C 425.652,405.601 427.152,404.601 428.5,403.5 Z"/></g>
<g><path style="opacity:1" fill="#75d598" d="M 316.5,374.5 C 317.675,374.281 318.675,374.614 319.5,375.5C 320.097,380.523 322.264,381.523 326,378.5C 326.273,380.101 326.773,381.601 327.5,383C 327.167,383.333 326.833,383.667 326.5,384C 327.618,385.074 328.618,386.24 329.5,387.5C 332.167,386.167 332.833,386.833 331.5,389.5C 332.325,390.386 333.325,390.719 334.5,390.5C 334.351,389.448 334.517,388.448 335,387.5C 335.333,389.167 335.667,390.833 336,392.5C 336.333,392.167 336.667,391.833 337,391.5C 337.651,393.235 337.485,394.902 336.5,396.5C 336.977,397.478 337.643,398.311 338.5,399C 338.167,399.333 337.833,399.667 337.5,400C 342.318,405.16 346.818,410.66 351,416.5C 351.684,417.784 351.517,418.951 350.5,420C 354.453,423.457 357.453,427.624 359.5,432.5C 362.567,433.947 364.734,436.28 366,439.5C 366.333,438.833 366.667,438.167 367,437.5C 366.941,441.889 369.107,444.223 373.5,444.5C 372.5,445.167 371.5,445.833 370.5,446.5C 372.448,448.687 374.614,451.354 377,454.5C 377.333,453.833 377.667,453.167 378,452.5C 380.007,456.535 382.007,460.535 384,464.5C 386.195,465.595 388.362,466.595 390.5,467.5C 390.915,470.079 392.248,471.913 394.5,473C 394.167,473.333 393.833,473.667 393.5,474C 395.998,478.027 396.998,482.193 396.5,486.5C 395.694,485.132 394.694,483.799 393.5,482.5C 394.186,480.936 394.019,479.269 393,477.5C 390.345,475.01 387.845,472.344 385.5,469.5C 383.978,468.438 382.312,467.771 380.5,467.5C 373.802,458.476 367.135,449.476 360.5,440.5C 355.192,432.851 349.859,425.185 344.5,417.5C 342.296,412.707 339.963,408.04 337.5,403.5C 336.624,402.749 335.624,402.249 334.5,402C 335.777,399.534 335.777,397.034 334.5,394.5C 333.914,394.709 333.414,395.043 333,395.5C 329.604,392.768 326.937,389.435 325,385.5C 324.667,386.167 324.333,386.833 324,387.5C 321.704,383.04 319.204,378.707 316.5,374.5 Z"/></g>
<g><path style="opacity:1" fill="#e5fef4" d="M 616.5,399.5 C 616.037,402.482 615.704,405.482 615.5,408.5C 614.5,408.5 613.5,408.5 612.5,408.5C 612.016,412.47 610.683,416.136 608.5,419.5C 607.06,423.476 604.893,427.143 602,430.5C 601.667,432.167 601.333,433.833 601,435.5C 598.65,438.072 596.483,440.739 594.5,443.5C 593.728,444.694 592.728,445.694 591.5,446.5C 592.698,443.574 593.698,440.574 594.5,437.5C 597.547,431.473 600.547,425.473 603.5,419.5C 604.167,419.5 604.5,419.167 604.5,418.5C 608.5,412.167 612.5,405.833 616.5,399.5 Z"/></g>
<g><path style="opacity:1" fill="#dffdf1" d="M 335.5,406.5 C 338.261,410.35 341.261,414.017 344.5,417.5C 349.859,425.185 355.192,432.851 360.5,440.5C 358.787,438.15 356.453,437.15 353.5,437.5C 352.151,433.637 350.317,429.97 348,426.5C 346.333,425.833 344.667,425.167 343,424.5C 341.811,421.465 340.645,418.465 339.5,415.5C 338.178,415.67 337.011,415.337 336,414.5C 336.612,411.806 336.445,409.14 335.5,406.5 Z"/></g>
<g><path style="opacity:1" fill="#d4fdeb" d="M 594.5,437.5 C 593.698,440.574 592.698,443.574 591.5,446.5C 586.232,454.34 581.399,462.673 577,471.5C 576.329,472.252 575.496,472.586 574.5,472.5C 580.411,460.337 587.078,448.67 594.5,437.5 Z"/></g>
<g><path style="opacity:1" fill="#dffdf2" d="M 360.5,440.5 C 367.135,449.476 373.802,458.476 380.5,467.5C 380.5,467.833 380.5,468.167 380.5,468.5C 378.999,467.248 377.332,466.248 375.5,465.5C 375.161,461.646 373.161,459.313 369.5,458.5C 369.649,457.448 369.483,456.448 369,455.5C 368.667,455.833 368.333,456.167 368,456.5C 365.829,453.28 363.662,450.113 361.5,447C 360.713,444.901 360.38,442.734 360.5,440.5 Z"/></g>
<g><path style="opacity:1" fill="#effefa" d="M 594.5,443.5 C 594.287,446.475 593.287,449.142 591.5,451.5C 591.709,452.086 592.043,452.586 592.5,453C 587.927,457.425 584.26,462.592 581.5,468.5C 582.681,470.198 582.681,471.865 581.5,473.5C 580.914,473.291 580.414,472.957 580,472.5C 577.008,475.299 575.008,478.632 574,482.5C 572.362,485.304 570.529,487.971 568.5,490.5C 568.833,491.167 569.167,491.833 569.5,492.5C 566.329,495.172 563.495,498.172 561,501.5C 560.185,505.239 559.518,508.906 559,512.5C 558.329,511.748 557.496,511.414 556.5,511.5C 558.101,505.697 560.101,500.031 562.5,494.5C 565.434,493.711 567.268,491.711 568,488.5C 568.495,486.527 568.662,484.527 568.5,482.5C 568.5,481.833 568.5,481.167 568.5,480.5C 570.087,477.572 572.087,474.906 574.5,472.5C 575.496,472.586 576.329,472.252 577,471.5C 581.399,462.673 586.232,454.34 591.5,446.5C 592.728,445.694 593.728,444.694 594.5,443.5 Z"/></g>
<g><path style="opacity:1" fill="#f2fefb" d="M 375.5,465.5 C 377.332,466.248 378.999,467.248 380.5,468.5C 380.343,469.873 380.51,471.207 381,472.5C 382.955,473.453 384.622,474.787 386,476.5C 387.27,479.106 388.937,481.439 391,483.5C 391.256,486.557 391.756,489.557 392.5,492.5C 390.995,493.842 390.328,495.508 390.5,497.5C 390.34,499.153 389.674,500.486 388.5,501.5C 387.5,501.5 386.5,501.5 385.5,501.5C 385.715,503.179 385.048,504.179 383.5,504.5C 383.489,502.983 382.823,501.816 381.5,501C 384.167,499 384.167,497 381.5,495C 385.136,494.374 385.136,493.207 381.5,491.5C 380.443,489.997 379.776,488.33 379.5,486.5C 380.39,485.045 380.39,483.711 379.5,482.5C 380.689,481.571 382.022,481.238 383.5,481.5C 383.5,479.833 383.5,478.167 383.5,476.5C 382.167,476.5 380.833,476.5 379.5,476.5C 378.692,472.674 377.358,469.007 375.5,465.5 Z"/></g>
<g><path style="opacity:1" fill="#d6fcec" d="M 380.5,468.5 C 385.853,474.364 390.687,480.697 395,487.5C 394.867,491.434 393.367,494.767 390.5,497.5C 390.328,495.508 390.995,493.842 392.5,492.5C 391.756,489.557 391.256,486.557 391,483.5C 388.937,481.439 387.27,479.106 386,476.5C 384.622,474.787 382.955,473.453 381,472.5C 380.51,471.207 380.343,469.873 380.5,468.5 Z"/></g>
<g><path style="opacity:1" fill="#75cf98" d="M 568.5,480.5 C 568.5,481.167 568.5,481.833 568.5,482.5C 563.167,491.167 557.833,499.833 552.5,508.5C 551.891,504.995 553.058,502.328 556,500.5C 556.36,498.392 557.027,496.392 558,494.5C 560.933,489.308 564.433,484.641 568.5,480.5 Z"/></g>
<g><path style="opacity:1" fill="#78d199" d="M 380.5,468.5 C 380.5,468.167 380.5,467.833 380.5,467.5C 382.312,467.771 383.978,468.438 385.5,469.5C 387.845,472.344 390.345,475.01 393,477.5C 394.019,479.269 394.186,480.936 393.5,482.5C 394.694,483.799 395.694,485.132 396.5,486.5C 396.5,488.167 396.5,489.833 396.5,491.5C 395.163,496.82 393.497,502.154 391.5,507.5C 388.234,509.286 385.234,511.286 382.5,513.5C 384.5,509.5 386.5,505.5 388.5,501.5C 389.674,500.486 390.34,499.153 390.5,497.5C 393.367,494.767 394.867,491.434 395,487.5C 390.687,480.697 385.853,474.364 380.5,468.5 Z"/></g>
<g><path style="opacity:1" fill="#79d099" d="M 382.5,513.5 C 382.224,519.051 380.058,523.718 376,527.5C 375.625,530 374.792,532.333 373.5,534.5C 372.311,535.429 370.978,535.762 369.5,535.5C 373.333,527.829 377.666,520.496 382.5,513.5 Z"/></g>
<g><path style="opacity:1" fill="#d6fded" d="M 568.5,482.5 C 568.662,484.527 568.495,486.527 568,488.5C 567.268,491.711 565.434,493.711 562.5,494.5C 560.101,500.031 558.101,505.697 556.5,511.5C 554.408,511.561 552.908,512.561 552,514.5C 547.446,521.008 543.946,528.008 541.5,535.5C 540.5,535.5 539.5,535.5 538.5,535.5C 542.386,526.06 547.053,517.06 552.5,508.5C 557.833,499.833 563.167,491.167 568.5,482.5 Z"/></g>
<g><path style="opacity:1" fill="#e6fef3" d="M 388.5,501.5 C 386.5,505.5 384.5,509.5 382.5,513.5C 377.666,520.496 373.333,527.829 369.5,535.5C 367.167,538.833 364.833,542.167 362.5,545.5C 363.72,539.949 365.554,534.616 368,529.5C 368.9,528.23 370.066,527.23 371.5,526.5C 371.291,525.914 370.957,525.414 370.5,525C 372.371,521.443 374.704,518.109 377.5,515C 377.265,514.127 376.931,513.293 376.5,512.5C 378.885,509.788 381.218,507.122 383.5,504.5C 385.048,504.179 385.715,503.179 385.5,501.5C 386.5,501.5 387.5,501.5 388.5,501.5 Z"/></g>
<g><path style="opacity:1" fill="#77d99b" d="M 360.5,557.5 C 360.776,553.519 362.11,549.852 364.5,546.5C 365.325,545.614 366.325,545.281 367.5,545.5C 369.017,542.413 369.684,539.079 369.5,535.5C 370.978,535.762 372.311,535.429 373.5,534.5C 374.792,532.333 375.625,530 376,527.5C 380.058,523.718 382.224,519.051 382.5,513.5C 385.234,511.286 388.234,509.286 391.5,507.5C 393.497,502.154 395.163,496.82 396.5,491.5C 397.117,491.611 397.617,491.944 398,492.5C 398.333,490.833 398.667,489.167 399,487.5C 399.653,489.564 400.82,491.231 402.5,492.5C 402.277,493.967 401.944,495.467 401.5,497C 404.167,499 404.167,501 401.5,503C 402.816,504.978 402.316,506.478 400,507.5C 398.197,505.516 397.197,503.516 397,501.5C 396.023,503.74 395.523,506.073 395.5,508.5C 396.675,508.281 397.675,508.614 398.5,509.5C 396.294,510.556 394.294,510.556 392.5,509.5C 391.776,512.615 390.276,515.282 388,517.5C 387.83,519.715 387.163,521.715 386,523.5C 385.751,522.376 385.251,521.376 384.5,520.5C 382.311,527.398 378.644,533.398 373.5,538.5C 372.366,544.075 370.199,549.075 367,553.5C 364.616,553.964 362.449,555.297 360.5,557.5 Z"/></g>
<g><path style="opacity:1" fill="#e6fef5" d="M 362.5,546.5 C 359.085,553 355.418,559.333 351.5,565.5C 351.241,561.76 351.574,558.094 352.5,554.5C 355.172,552.327 357.506,549.827 359.5,547C 360.448,546.517 361.448,546.351 362.5,546.5 Z"/></g>
<g><path style="opacity:1" fill="#6fde9a" d="M 427.5,555.5 C 432.241,554.963 436.574,555.963 440.5,558.5C 437.312,561.539 435.145,565.206 434,569.5C 431.343,570.573 429.177,572.24 427.5,574.5C 428.689,575.429 430.022,575.762 431.5,575.5C 433.937,582.12 435.103,589.12 435,596.5C 431.446,600.046 427.946,603.713 424.5,607.5C 424.456,613.137 422.789,618.137 419.5,622.5C 418.311,623.429 416.978,623.762 415.5,623.5C 415.627,627.286 414.46,630.619 412,633.5C 411.667,639.5 411.333,645.5 411,651.5C 410.125,654.215 408.292,655.548 405.5,655.5C 405.719,656.675 405.386,657.675 404.5,658.5C 399.621,661.451 395.287,665.118 391.5,669.5C 391.432,670.816 391.432,672.15 391.5,673.5C 388.548,674.654 385.548,675.654 382.5,676.5C 379.633,673.255 376.3,670.588 372.5,668.5C 369.646,664.141 366.313,660.141 362.5,656.5C 364.045,655.548 365.712,655.215 367.5,655.5C 367.334,646.161 367.5,636.827 368,627.5C 370.316,626.478 370.816,624.978 369.5,623C 372.856,620.645 375.022,617.478 376,613.5C 377.685,611.983 379.185,610.316 380.5,608.5C 382.409,607.652 384.409,607.318 386.5,607.5C 386.506,603.449 388.006,600.116 391,597.5C 392.304,590.849 395.971,585.849 402,582.5C 403.596,578.255 405.596,574.255 408,570.5C 414.376,565.285 420.876,560.285 427.5,555.5 Z"/></g>
<g><path style="opacity:1" fill="#dffef4" d="M 538.5,535.5 C 536.687,540.406 535.02,545.406 533.5,550.5C 532.5,550.5 531.5,550.5 530.5,550.5C 529.589,554.457 528.589,558.457 527.5,562.5C 526.053,563.622 525.053,565.122 524.5,567C 523.207,567.49 521.873,567.657 520.5,567.5C 520.216,570.254 519.549,572.92 518.5,575.5C 517.914,575.291 517.414,574.957 517,574.5C 516.068,576.766 514.734,578.766 513,580.5C 512.338,582.813 511.838,585.146 511.5,587.5C 510.041,587.433 508.708,587.766 507.5,588.5C 517.112,570.257 527.445,552.591 538.5,535.5 Z"/></g>
<g><path style="opacity:1" fill="#74d498" d="M 603.5,419.5 C 600.547,425.473 597.547,431.473 594.5,437.5C 587.078,448.67 580.411,460.337 574.5,472.5C 572.087,474.906 570.087,477.572 568.5,480.5C 564.433,484.641 560.933,489.308 558,494.5C 557.027,496.392 556.36,498.392 556,500.5C 553.058,502.328 551.891,504.995 552.5,508.5C 547.053,517.06 542.386,526.06 538.5,535.5C 527.445,552.591 517.112,570.257 507.5,588.5C 505.076,591.008 503.41,594.008 502.5,597.5C 496.664,606.5 491.331,615.833 486.5,625.5C 482.907,629.586 480.24,634.253 478.5,639.5C 472.802,648.23 467.469,657.23 462.5,666.5C 458.536,673.478 454.536,680.478 450.5,687.5C 441.664,701.834 433.331,716.5 425.5,731.5C 424.326,732.514 423.66,733.847 423.5,735.5C 419.833,740.833 416.167,746.167 412.5,751.5C 410.932,752.473 409.265,752.64 407.5,752C 401.632,747.235 395.299,743.235 388.5,740C 386.091,738.293 383.425,737.46 380.5,737.5C 376.957,735.562 373.29,733.895 369.5,732.5C 363.039,727.429 356.039,723.096 348.5,719.5C 348.167,719.5 347.833,719.5 347.5,719.5C 344.833,717.5 342.167,715.5 339.5,713.5C 337.477,710.18 334.477,708.014 330.5,707C 330.833,706.667 331.167,706.333 331.5,706C 329.382,705.74 327.716,704.74 326.5,703C 323.582,701.85 320.582,701.017 317.5,700.5C 316.833,700.5 316.167,700.5 315.5,700.5C 307.833,695.833 300.167,691.167 292.5,686.5C 292.047,685.542 291.381,684.708 290.5,684C 290.868,680.622 290.868,677.122 290.5,673.5C 291.895,669.71 293.562,666.043 295.5,662.5C 300.737,654.368 305.737,646.035 310.5,637.5C 315.402,629.368 320.069,621.035 324.5,612.5C 326.748,609.672 328.748,606.672 330.5,603.5C 331.239,603.631 331.906,603.464 332.5,603C 334.5,600.667 336.5,598.333 338.5,596C 338.167,595.667 337.833,595.333 337.5,595C 339.66,593.668 341.66,592.168 343.5,590.5C 343.141,592.371 342.141,593.871 340.5,595C 341.624,595.249 342.624,595.749 343.5,596.5C 342.033,596.723 340.533,597.056 339,597.5C 337.183,600.97 335.016,604.137 332.5,607C 333.451,607.718 333.617,608.551 333,609.5C 329.753,613.659 326.753,617.992 324,622.5C 323.666,624.847 323.833,627.181 324.5,629.5C 323.5,629.5 322.5,629.5 321.5,629.5C 321.657,630.873 321.49,632.207 321,633.5C 320.107,632.289 319.274,632.289 318.5,633.5C 314.923,637.284 313.756,641.617 315,646.5C 313.989,647.337 312.822,647.67 311.5,647.5C 312.265,651.808 310.598,654.642 306.5,656C 307.685,658.778 306.685,660.278 303.5,660.5C 303.657,661.873 303.49,663.207 303,664.5C 302.692,663.692 302.192,663.025 301.5,662.5C 300.755,664.747 299.422,666.58 297.5,668C 297.483,671.633 297.65,675.467 298,679.5C 299.069,679.36 300.236,679.36 301.5,679.5C 299.883,681.632 299.383,683.965 300,686.5C 301.873,685.911 303.54,686.578 305,688.5C 306.813,687.391 307.646,688.058 307.5,690.5C 310.223,691.352 312.89,692.519 315.5,694C 316.035,696.109 317.035,696.609 318.5,695.5C 319.427,697.946 321.094,698.779 323.5,698C 321.503,696.847 321.17,695.347 322.5,693.5C 323.004,696.342 324.671,697.675 327.5,697.5C 328.105,703.206 329.105,703.54 330.5,698.5C 331.318,700.108 331.985,701.775 332.5,703.5C 333.274,704.711 334.107,704.711 335,703.5C 335.89,709.146 336.89,709.479 338,704.5C 338.23,708.483 339.563,709.149 342,706.5C 342.007,708.619 343.174,710.453 345.5,712C 350.143,714.764 354.81,716.43 359.5,717C 359.957,717.414 360.291,717.914 360.5,718.5C 359.738,718.911 358.738,719.077 357.5,719C 367.021,723.857 376.021,729.523 384.5,736C 388.06,737.237 391.727,737.737 395.5,737.5C 395.656,741.135 396.822,741.468 399,738.5C 398.734,741.901 400.234,743.567 403.5,743.5C 403.286,745.144 403.62,746.644 404.5,748C 412.021,749.844 415.854,747.01 416,739.5C 418.086,735.581 420.086,731.248 422,726.5C 426.072,722.662 428.738,717.995 430,712.5C 439.552,699.239 447.719,685.573 454.5,671.5C 454.32,670.446 453.987,669.446 453.5,668.5C 455.359,666.808 457.359,665.308 459.5,664C 457.781,662.13 456.781,659.963 456.5,657.5C 457.5,657.5 458.5,657.5 459.5,657.5C 459.351,658.552 459.517,659.552 460,660.5C 461.153,657.53 462.82,654.863 465,652.5C 464.802,649.765 464.969,647.099 465.5,644.5C 466.086,644.709 466.586,645.043 467,645.5C 469.925,643.283 470.425,640.95 468.5,638.5C 469.332,635.839 470.166,633.172 471,630.5C 472.512,631.257 473.846,632.257 475,633.5C 477.254,629.993 479.254,626.327 481,622.5C 483.884,620.039 485.384,617.206 485.5,614C 490.563,609.231 494.563,603.064 497.5,595.5C 501.716,591.736 504.383,587.069 505.5,581.5C 503.989,579.162 504.323,578.496 506.5,579.5C 507.5,578.5 508.5,577.5 509.5,576.5C 508.975,575.808 508.308,575.308 507.5,575C 509.286,574.215 510.786,573.049 512,571.5C 514.239,566.923 516.905,562.589 520,558.5C 520.973,556.608 521.64,554.608 522,552.5C 522.853,550.875 523.853,550.542 525,551.5C 525.616,548.213 527.116,545.379 529.5,543C 528.391,541.187 529.058,540.354 531.5,540.5C 531.966,538.799 531.966,537.299 531.5,536C 534.897,532.919 537.063,529.086 538,524.5C 539.284,525.572 539.617,526.905 539,528.5C 542.29,525.175 543.124,521.342 541.5,517C 546.438,514.25 547.105,510.917 543.5,507C 544.632,504.79 546.132,504.29 548,505.5C 551.999,501.509 554.999,496.843 557,491.5C 562.191,486.102 565.358,480.102 566.5,473.5C 567.5,473.5 568.5,473.5 569.5,473.5C 569.343,472.127 569.51,470.793 570,469.5C 575.288,463.218 579.288,456.218 582,448.5C 584.406,445.364 586.572,442.031 588.5,438.5C 589.748,437.96 590.915,437.293 592,436.5C 592.541,433.791 594.041,431.791 596.5,430.5C 596.291,429.914 595.957,429.414 595.5,429C 596.717,427.352 597.55,425.519 598,423.5C 598.414,423.957 598.914,424.291 599.5,424.5C 600.578,422.539 601.911,420.872 603.5,419.5 Z"/></g>
<g><path style="opacity:1" fill="#e6fdf3" d="M 351.5,565.5 C 348.988,571.672 345.655,577.339 341.5,582.5C 341.528,579.749 342.528,577.415 344.5,575.5C 344.291,574.914 343.957,574.414 343.5,574C 346.764,572.104 348.431,569.271 348.5,565.5C 349.5,565.5 350.5,565.5 351.5,565.5 Z"/></g>
<g><path style="opacity:1" fill="#f4fefc" d="M 527.5,562.5 C 528.113,566.512 526.446,568.512 522.5,568.5C 522.604,571.09 521.937,573.423 520.5,575.5C 521.845,577.323 522.345,579.323 522,581.5C 520.286,582.925 518.953,582.592 518,580.5C 516.413,585.411 513.413,589.078 509,591.5C 508.415,593.129 507.581,594.629 506.5,596C 507.137,597.713 508.137,597.879 509.5,596.5C 510.251,597.376 510.751,598.376 511,599.5C 511.414,599.043 511.914,598.709 512.5,598.5C 513.583,599.365 513.749,600.365 513,601.5C 511.667,602.833 510.333,604.167 509,605.5C 508,604.167 507,602.833 506,601.5C 505.292,602.381 504.458,603.047 503.5,603.5C 505.046,601.118 505.713,598.451 505.5,595.5C 506.167,593.167 506.833,590.833 507.5,588.5C 508.708,587.766 510.041,587.433 511.5,587.5C 511.838,585.146 512.338,582.813 513,580.5C 514.734,578.766 516.068,576.766 517,574.5C 517.414,574.957 517.914,575.291 518.5,575.5C 519.549,572.92 520.216,570.254 520.5,567.5C 521.873,567.657 523.207,567.49 524.5,567C 525.053,565.122 526.053,563.622 527.5,562.5 Z"/></g>
<g><path style="opacity:1" fill="#7ad19b" d="M 369.5,535.5 C 369.684,539.079 369.017,542.413 367.5,545.5C 366.325,545.281 365.325,545.614 364.5,546.5C 362.11,549.852 360.776,553.519 360.5,557.5C 355.392,563.269 352.058,569.936 350.5,577.5C 347.599,581.542 345.266,585.875 343.5,590.5C 341.66,592.168 339.66,593.668 337.5,595C 337.833,595.333 338.167,595.667 338.5,596C 336.5,598.333 334.5,600.667 332.5,603C 331.906,603.464 331.239,603.631 330.5,603.5C 332.5,599.5 334.5,595.5 336.5,591.5C 338.924,588.992 340.59,585.992 341.5,582.5C 345.655,577.339 348.988,571.672 351.5,565.5C 355.418,559.333 359.085,553 362.5,546.5C 362.5,546.167 362.5,545.833 362.5,545.5C 364.833,542.167 367.167,538.833 369.5,535.5 Z"/></g>
<g><path style="opacity:1" fill="#cefce5" d="M 507.5,588.5 C 506.833,590.833 506.167,593.167 505.5,595.5C 504.778,596.551 503.778,597.218 502.5,597.5C 503.41,594.008 505.076,591.008 507.5,588.5 Z"/></g>
<g><path style="opacity:1" fill="#eefef7" d="M 336.5,591.5 C 334.5,595.5 332.5,599.5 330.5,603.5C 328.748,606.672 326.748,609.672 324.5,612.5C 322.784,612.629 321.117,612.962 319.5,613.5C 320.018,610.113 320.851,606.779 322,603.5C 322.893,604.711 323.726,604.711 324.5,603.5C 326.379,600.24 328.379,597.073 330.5,594C 332.217,592.441 334.217,591.608 336.5,591.5 Z"/></g>
<g><path style="opacity:1" fill="#defef1" d="M 505.5,595.5 C 505.713,598.451 505.046,601.118 503.5,603.5C 502.015,605.934 500.348,608.267 498.5,610.5C 496.245,613.558 494.245,616.891 492.5,620.5C 490.217,621.971 488.217,623.638 486.5,625.5C 491.331,615.833 496.664,606.5 502.5,597.5C 503.778,597.218 504.778,596.551 505.5,595.5 Z"/></g>
<g><path style="opacity:1" fill="#dbfdef" d="M 324.5,612.5 C 320.069,621.035 315.402,629.368 310.5,637.5C 310.678,634.784 311.178,632.117 312,629.5C 315.951,624.799 318.451,619.466 319.5,613.5C 321.117,612.962 322.784,612.629 324.5,612.5 Z"/></g>
<g><path style="opacity:1" fill="#f1fefb" d="M 498.5,610.5 C 498.005,612.482 497.505,614.482 497,616.5C 494.167,621.5 491.333,626.5 488.5,631.5C 485.223,634.87 482.389,638.536 480,642.5C 479.47,645.826 478.636,648.993 477.5,652C 477.167,652.5 476.833,653 476.5,653.5C 475.473,652.209 474.473,652.209 473.5,653.5C 473.5,652.5 473.5,651.5 473.5,650.5C 474.5,650.5 475.5,650.5 476.5,650.5C 476.424,646.616 477.09,642.95 478.5,639.5C 481.003,636.789 483.336,633.789 485.5,630.5C 486.452,628.955 486.785,627.288 486.5,625.5C 488.217,623.638 490.217,621.971 492.5,620.5C 494.245,616.891 496.245,613.558 498.5,610.5 Z"/></g>
<g><path style="opacity:1" fill="#d5fbeb" d="M 486.5,625.5 C 486.785,627.288 486.452,628.955 485.5,630.5C 483.336,633.789 481.003,636.789 478.5,639.5C 480.24,634.253 482.907,629.586 486.5,625.5 Z"/></g>
<g><path style="opacity:1" fill="#dffdef" d="M 310.5,637.5 C 305.737,646.035 300.737,654.368 295.5,662.5C 295.5,660.833 295.5,659.167 295.5,657.5C 296.87,657.144 297.87,656.31 298.5,655C 300.399,650.876 302.066,646.709 303.5,642.5C 304.5,642.5 305.5,642.5 306.5,642.5C 306.183,639.454 307.516,637.787 310.5,637.5 Z"/></g>
<g><path style="opacity:1" fill="#defef1" d="M 478.5,639.5 C 477.09,642.95 476.424,646.616 476.5,650.5C 475.5,650.5 474.5,650.5 473.5,650.5C 473.5,651.5 473.5,652.5 473.5,653.5C 471.042,658.683 467.375,663.017 462.5,666.5C 467.469,657.23 472.802,648.23 478.5,639.5 Z"/></g>
<g><path style="opacity:1" fill="#f0fdf8" d="M 295.5,657.5 C 295.5,659.167 295.5,660.833 295.5,662.5C 293.562,666.043 291.895,669.71 290.5,673.5C 288.204,675.506 286.537,678.006 285.5,681C 285.978,682.303 286.645,683.469 287.5,684.5C 286.85,684.804 286.183,685.137 285.5,685.5C 284.757,684.092 283.923,682.759 283,681.5C 281.387,682.622 280.22,682.122 279.5,680C 281.744,679.004 283.577,677.504 285,675.5C 286.411,672.421 287.911,669.421 289.5,666.5C 290.325,665.614 291.325,665.281 292.5,665.5C 292.227,663.549 292.893,662.049 294.5,661C 293.015,659.244 293.348,658.077 295.5,657.5 Z"/></g>
<g><path style="opacity:1" fill="#7cc599" d="M 290.5,673.5 C 290.868,677.122 290.868,680.622 290.5,684C 291.381,684.708 292.047,685.542 292.5,686.5C 290.833,685.833 289.167,685.167 287.5,684.5C 286.645,683.469 285.978,682.303 285.5,681C 286.537,678.006 288.204,675.506 290.5,673.5 Z"/></g>
<g><path style="opacity:1" fill="#e5fef5" d="M 462.5,666.5 C 462.11,669.839 461.61,673.173 461,676.5C 460.107,675.289 459.274,675.289 458.5,676.5C 457.627,680.199 456.627,683.865 455.5,687.5C 454.023,686.902 452.357,686.902 450.5,687.5C 454.536,680.478 458.536,673.478 462.5,666.5 Z"/></g>
<g><path style="opacity:1" fill="#dcfeef" d="M 287.5,684.5 C 289.167,685.167 290.833,685.833 292.5,686.5C 300.167,691.167 307.833,695.833 315.5,700.5C 312.482,700.296 309.482,699.963 306.5,699.5C 305.923,696.355 303.923,694.855 300.5,695C 297.034,690.936 292.701,688.436 287.5,687.5C 287.5,686.5 287.5,685.5 287.5,684.5 Z"/></g>
<g><path style="opacity:1" fill="#75ce99" d="M 317.5,700.5 C 320.582,701.017 323.582,701.85 326.5,703C 327.716,704.74 329.382,705.74 331.5,706C 331.167,706.333 330.833,706.667 330.5,707C 334.477,708.014 337.477,710.18 339.5,713.5C 338.167,713.167 336.833,712.833 335.5,712.5C 334.486,711.326 333.153,710.66 331.5,710.5C 327.112,706.779 322.445,703.445 317.5,700.5 Z"/></g>
<g><path style="opacity:1" fill="#dafcf0" d="M 315.5,700.5 C 316.167,700.5 316.833,700.5 317.5,700.5C 322.445,703.445 327.112,706.779 331.5,710.5C 327.615,709.095 323.615,708.095 319.5,707.5C 317.914,705.33 316.58,702.996 315.5,700.5 Z"/></g>
<g><path style="opacity:1" fill="#e0fdf0" d="M 450.5,687.5 C 450.152,692.42 448.985,697.086 447,701.5C 442.946,704.053 440.779,707.72 440.5,712.5C 436.933,717.244 433.1,721.91 429,726.5C 428.805,728.207 428.805,729.874 429,731.5C 427.855,730.316 426.688,730.316 425.5,731.5C 433.331,716.5 441.664,701.834 450.5,687.5 Z"/></g>
<g><path style="opacity:1" fill="#eafef8" d="M 319.5,707.5 C 323.615,708.095 327.615,709.095 331.5,710.5C 333.153,710.66 334.486,711.326 335.5,712.5C 338.456,716.423 342.456,718.757 347.5,719.5C 347.833,719.5 348.167,719.5 348.5,719.5C 348.414,720.496 348.748,721.329 349.5,722C 356.105,725.801 362.772,729.301 369.5,732.5C 373.29,733.895 376.957,735.562 380.5,737.5C 380.5,737.833 380.5,738.167 380.5,738.5C 378.473,738.662 376.473,738.495 374.5,738C 371.417,736.082 368.083,734.749 364.5,734C 354.843,729.171 345.843,723.338 337.5,716.5C 331.713,712.94 325.713,709.94 319.5,707.5 Z"/></g>
<g><path style="opacity:1" fill="#d0fde8" d="M 335.5,712.5 C 336.833,712.833 338.167,713.167 339.5,713.5C 342.167,715.5 344.833,717.5 347.5,719.5C 342.456,718.757 338.456,716.423 335.5,712.5 Z"/></g>
<g><path style="opacity:1" fill="#f1fef8" d="M 440.5,712.5 C 438.24,717.717 435.907,722.884 433.5,728C 431.508,730.301 429.508,732.634 427.5,735C 427.833,735.333 428.167,735.667 428.5,736C 425.346,740.48 423.013,745.313 421.5,750.5C 420.178,750.33 419.011,750.663 418,751.5C 417.163,753.351 416.329,755.184 415.5,757C 412.881,757.151 410.547,757.985 408.5,759.5C 405.68,757.748 402.846,757.082 400,757.5C 399.338,756.016 398.504,754.683 397.5,753.5C 399.928,754.212 402.261,755.212 404.5,756.5C 408.039,756.757 411.706,756.424 415.5,755.5C 415.578,751.344 417.245,748.011 420.5,745.5C 421.515,742.146 422.515,738.812 423.5,735.5C 423.66,733.847 424.326,732.514 425.5,731.5C 426.688,730.316 427.855,730.316 429,731.5C 428.805,729.874 428.805,728.207 429,726.5C 433.1,721.91 436.933,717.244 440.5,712.5 Z"/></g>
<g><path style="opacity:1" fill="#cffde9" d="M 348.5,719.5 C 356.039,723.096 363.039,727.429 369.5,732.5C 362.772,729.301 356.105,725.801 349.5,722C 348.748,721.329 348.414,720.496 348.5,719.5 Z"/></g>
<g><path style="opacity:1" fill="#76ba90" d="M 380.5,738.5 C 380.5,738.167 380.5,737.833 380.5,737.5C 383.425,737.46 386.091,738.293 388.5,740C 395.299,743.235 401.632,747.235 407.5,752C 409.265,752.64 410.932,752.473 412.5,751.5C 412.278,754.076 410.945,754.91 408.5,754C 399.273,748.555 389.94,743.389 380.5,738.5 Z"/></g>
<g><path style="opacity:1" fill="#e5fdee" d="M 423.5,735.5 C 422.515,738.812 421.515,742.146 420.5,745.5C 417.245,748.011 415.578,751.344 415.5,755.5C 411.706,756.424 408.039,756.757 404.5,756.5C 402.261,755.212 399.928,754.212 397.5,753.5C 395.896,752.713 395.229,751.38 395.5,749.5C 390.754,747.61 386.088,745.443 381.5,743C 379.452,741.774 379.119,740.274 380.5,738.5C 389.94,743.389 399.273,748.555 408.5,754C 410.945,754.91 412.278,754.076 412.5,751.5C 416.167,746.167 419.833,740.833 423.5,735.5 Z"/></g>
<g><path style="opacity:1" fill="#f5f5f3" d="M 909.5,919.5 C 606.167,919.5 302.833,919.5 -0.5,919.5C -0.5,919.167 -0.5,918.833 -0.5,918.5C 296.718,918.729 598.385,918.395 904.5,917.5C 906.336,918.028 908.003,918.694 909.5,919.5 Z"/></g>
</svg>
